<mxfile host="app.diagrams.net" modified="2024-04-15T10:19:41.133Z" agent="Mozilla/5.0 (Macintosh; Intel Mac OS X 10_15_7) AppleWebKit/537.36 (KHTML, like Gecko) Chrome/122.0.0.0 Safari/537.36 OPR/108.0.0.0" version="24.2.3" etag="Ez_xYDncgSqpBR1ZZ8h7" type="github">
  <diagram name="Page-1" id="sPys2mc9D2b48111uiaz">
    <mxGraphModel>
      <root>
        <mxCell id="0" />
        <mxCell id="1" parent="0" />
      </root>
    </mxGraphModel>
  </diagram>
</mxfile>
